<svg width="15" height="18" viewBox="0 0 15 18" fill="none" xmlns="http://www.w3.org/2000/svg">
<path d="M7.50001 8.99996C7.95834 8.99996 8.3507 8.83677 8.67709 8.51038C9.00348 8.18399 9.16668 7.79163 9.16668 7.33329C9.16668 6.87496 9.00348 6.4826 8.67709 6.15621C8.3507 5.82982 7.95834 5.66663 7.50001 5.66663C7.04168 5.66663 6.64932 5.82982 6.32293 6.15621C5.99654 6.4826 5.83334 6.87496 5.83334 7.33329C5.83334 7.79163 5.99654 8.18399 6.32293 8.51038C6.64932 8.83677 7.04168 8.99996 7.50001 8.99996ZM7.50001 15.125C9.19445 13.5694 10.4514 12.1562 11.2708 10.8854C12.0903 9.61454 12.5 8.48607 12.5 7.49996C12.5 5.98607 12.0174 4.74649 11.0521 3.78121C10.0868 2.81593 8.90279 2.33329 7.50001 2.33329C6.09723 2.33329 4.9132 2.81593 3.94793 3.78121C2.98265 4.74649 2.50001 5.98607 2.50001 7.49996C2.50001 8.48607 2.90973 9.61454 3.72918 10.8854C4.54862 12.1562 5.80557 13.5694 7.50001 15.125ZM7.50001 17.3333C5.2639 15.4305 3.59376 13.6632 2.48959 12.0312C1.38543 10.3993 0.833344 8.88885 0.833344 7.49996C0.833344 5.41663 1.50348 3.7569 2.84376 2.52079C4.18404 1.28468 5.73612 0.666626 7.50001 0.666626C9.2639 0.666626 10.816 1.28468 12.1563 2.52079C13.4965 3.7569 14.1667 5.41663 14.1667 7.49996C14.1667 8.88885 13.6146 10.3993 12.5104 12.0312C11.4063 13.6632 9.73612 15.4305 7.50001 17.3333Z" fill="#526175"/>
</svg>
