<svg width="494" height="175" viewBox="0 0 494 175" fill="none" xmlns="http://www.w3.org/2000/svg">
<g clip-path="url(#clip0_5_161)">
<path d="M78.0518 79.614H77.0827L26.537 108.772C25.4062 109.428 24.4676 110.369 23.8153 111.502C23.1628 112.634 22.8193 113.918 22.8193 115.226C22.8193 116.532 23.1628 117.817 23.8153 118.949C24.4676 120.082 25.4062 121.023 26.537 121.679L74.3204 149.248C75.4574 149.893 76.7445 150.227 78.0518 150.217V79.614Z" fill="#575E62"/>
<path d="M78.0521 79.614H79.0213L129.528 108.772C130.662 109.426 131.602 110.367 132.257 111.499C132.911 112.632 133.255 113.917 133.255 115.226C133.255 116.534 132.911 117.819 132.257 118.951C131.602 120.085 130.662 121.025 129.528 121.679L81.7449 149.248C80.611 149.892 79.3272 150.226 78.0229 150.217L78.0521 79.614Z" fill="#404648"/>
<path d="M145.133 36.9675L88.2578 4.11776C85.1511 2.33239 81.6304 1.39282 78.047 1.39282C74.4636 1.39282 70.9427 2.33239 67.836 4.11776L10.9321 36.9675C7.82519 38.7677 5.24607 41.3526 3.45312 44.4631C1.66017 47.5737 0.716381 51.1009 0.716309 54.6909V120.381C0.730903 123.957 1.68153 127.468 3.4737 130.564C5.26589 133.659 7.83719 136.232 10.9321 138.027L67.836 170.876C70.9412 172.666 74.4626 173.609 78.047 173.609C81.6314 173.609 85.1526 172.666 88.2578 170.876L145.133 138.027C148.235 136.228 150.81 133.648 152.603 130.543C154.396 127.438 155.342 123.917 155.348 120.332V54.6909C155.348 51.1009 154.405 47.5737 152.612 44.4631C150.819 41.3526 148.24 38.7677 145.133 36.9675ZM144.212 120.303C144.211 121.933 143.781 123.534 142.966 124.945C142.151 126.357 140.98 127.53 139.569 128.346L82.6945 161.283C81.28 162.089 79.6799 162.513 78.0519 162.513C76.4236 162.513 74.8236 162.089 73.409 161.283L16.5052 128.433C15.0932 127.618 13.9207 126.446 13.1057 125.034C12.2907 123.622 11.862 122.021 11.8625 120.39V54.6909C11.8636 53.0624 12.2932 51.4629 13.1081 50.0528C13.923 48.6429 15.0946 47.472 16.5052 46.6578L73.409 13.7692C74.8236 12.9629 76.4236 12.5388 78.0519 12.5388C79.6799 12.5388 81.28 12.9629 82.6945 13.7692L139.598 46.6189C141.013 47.4379 142.187 48.6153 143.003 50.0324C143.818 51.4495 144.245 53.0562 144.241 54.6909L144.212 120.303Z" fill="#575E62"/>
<path d="M177.331 87.3562C177.331 74.2357 187.023 60.2722 204.895 60.2722C222.769 60.2722 232.46 74.2357 232.46 87.4533C232.46 100.671 222.808 114.77 204.895 114.77C186.985 114.77 177.331 100.806 177.331 87.4919V87.3562ZM189.621 87.5501C189.568 89.5879 189.924 91.6157 190.668 93.5135C191.412 95.4115 192.529 97.1409 193.953 98.6C195.377 100.059 197.079 101.218 198.958 102.008C200.838 102.798 202.857 103.203 204.895 103.2C213.338 103.2 220.085 96.5426 220.085 87.4533C220.085 78.3638 213.299 71.7066 204.895 71.7066C196.494 71.7066 189.621 78.3638 189.621 87.4533V87.5501Z" fill="#575E62"/>
<path d="M238.83 61.786H250.46V68.569C252.708 63.9663 256.934 60.3131 264.737 60.2161V72.5808H264.166C255.528 72.5808 251.11 76.6215 251.11 85.5366V113.328H238.83V61.786Z" fill="#575E62"/>
<path d="M271.976 61.7838H284.276V113.326H271.976V61.7838Z" fill="#575E62"/>
<path d="M345.901 107.152C345.901 115.583 344.311 121.019 341.123 125.331C336.712 131.242 328.086 135.922 317.493 135.922C301.461 135.922 293.775 126.368 291.904 118.393H306.152C307.305 120.685 309.182 122.531 311.493 123.645C313.579 124.776 315.906 125.387 318.278 125.428C325.585 125.428 333.553 120.36 333.553 109.924V105.612C331.023 110.205 325.585 114.798 316.872 114.798C302.052 114.798 290.616 103.548 290.616 87.6654C290.616 70.8917 302.614 60.2032 316.872 60.2032C324.276 60.2032 330.656 63.5755 333.553 68.6435V61.7827H345.931L345.901 107.152ZM302.867 87.4618C302.867 96.464 309.342 103.305 318.249 103.305C320.283 103.373 322.31 103.015 324.198 102.256C326.089 101.497 327.798 100.353 329.22 98.8963C332.052 95.9511 333.629 92.0219 333.621 87.9367C333.686 83.9257 332.361 80.0156 329.87 76.8704C327.437 73.7794 323.59 71.7153 318.239 71.7153C316.191 71.7017 314.161 72.0996 312.271 72.8851C310.38 73.6709 308.667 74.8284 307.231 76.2891C305.798 77.7497 304.67 79.4836 303.919 81.388C303.169 83.2922 302.807 85.328 302.857 87.3745L302.867 87.4618Z" fill="#575E62"/>
<path d="M406.71 113.324H394.41V105.901C391.125 111.909 384.264 114.913 377.033 114.913C360.507 114.913 350.862 102.054 350.862 87.4996C350.862 71.2588 362.6 60.1733 377.033 60.1733C386.424 60.1733 392.152 65.154 394.41 69.2821V61.7723H406.71V113.324ZM363.096 87.7808C363.096 94.1665 367.699 103.459 378.777 103.459C381.619 103.569 384.431 102.846 386.868 101.379C389.305 99.9121 391.259 97.7657 392.493 95.2033C393.648 92.9569 394.309 90.4884 394.43 87.9647C394.531 85.4787 394.05 83.0034 393.025 80.7358C391.822 77.9642 389.816 75.6163 387.267 73.9946C384.717 72.3728 381.739 71.5516 378.719 71.6368C368.765 71.6368 363.123 79.7088 363.123 87.6837L363.096 87.7808Z" fill="#575E62"/>
<path d="M415.386 61.7753H426.938V68.258C428.062 65.913 433.045 60.1763 441.963 60.1763C444.328 60.1065 446.681 60.5396 448.865 61.4467C451.051 62.3535 453.019 63.7141 454.639 65.4382C455.857 66.8752 456.899 68.4531 457.741 70.1379C458.753 68.3492 460.019 66.7171 461.501 65.2928C465.068 61.9514 469.786 60.118 474.674 60.1763C478.987 60.1763 484.433 61.3101 488.379 65.3414C493.08 70.1863 494.019 74.4501 494.019 85.0608V113.327H481.71V85.5356C481.71 82.2507 481.428 78.675 479.647 75.952C478.328 73.4229 475.895 71.7271 471.571 71.7271C467.25 71.7271 464.245 73.607 462.644 76.4268C461.046 79.2467 460.861 81.9697 460.861 85.0608V113.327H448.503V85.0608C448.645 82.1293 448.097 79.2057 446.905 76.5237C445.403 73.8009 442.863 71.824 438.454 71.6787C434.043 71.5333 431.126 73.8396 429.622 76.5237C428.241 79.2869 427.576 82.352 427.685 85.4388V113.327H415.386V61.7753Z" fill="#575E62"/>
<path d="M284.258 43.374H271.976V54.3432H284.258V43.374Z" fill="#BAC108"/>
<path d="M52.299 81.2432L26.207 96.3017C25.8669 96.504 25.4785 96.6109 25.0827 96.6119C24.4829 96.6092 23.9086 96.3692 23.4854 95.9442C23.062 95.5193 22.8245 94.9439 22.8245 94.3443V60.293C22.8202 60.3251 22.8202 60.3577 22.8245 60.3898C22.8908 61.6193 23.2656 62.8122 23.9144 63.8589C24.563 64.9054 25.4649 65.7718 26.5367 66.3783L52.299 81.2432Z" fill="#888F08"/>
<path d="M78.0422 24.8835V94.9536C76.7384 94.9584 75.4559 94.6245 74.3203 93.9844L66.8667 89.682L60.9158 86.242L52.2992 81.2419L26.5369 66.377C25.468 65.767 24.5687 64.8998 23.9202 63.8539C23.272 62.8082 22.8953 61.6168 22.8247 60.3885V60.2917C22.8198 60.2304 22.8198 60.1688 22.8247 60.1075V59.9331V59.7684C22.815 59.5812 22.815 59.3935 22.8247 59.2063C22.9365 58.0258 23.3302 56.8895 23.9729 55.893C24.6155 54.8962 25.4882 54.0685 26.5174 53.4793L74.3008 25.8914C75.4386 25.2345 76.7284 24.887 78.0422 24.8835Z" fill="#BAC108"/>
<path d="M52.2994 81.2402L47.4531 84.031C47.4531 84.031 28.6014 70.3678 25.277 66.8019C23.7336 65.0165 22.8657 62.7464 22.8247 60.387C22.8955 61.6153 23.2722 62.8066 23.9205 63.8523C24.5687 64.8983 25.4682 65.7655 26.5369 66.3755L52.2994 81.2402Z" fill="#6D7225"/>
<path d="M103.795 81.2432L129.887 96.3017C130.227 96.504 130.615 96.6109 131.011 96.6119C131.611 96.6092 132.185 96.3692 132.609 95.9442C133.032 95.5193 133.269 94.9439 133.269 94.3443V60.293C133.274 60.3251 133.274 60.3577 133.269 60.3898C133.203 61.6193 132.828 62.8122 132.18 63.8589C131.531 64.9054 130.629 65.7718 129.557 66.3783L103.795 81.2432Z" fill="#888F08"/>
<path d="M78.0518 24.8835V94.9536C79.3554 94.9584 80.6379 94.6245 81.7735 93.9844L89.227 89.682L95.1782 86.242L103.795 81.2709L129.557 66.4062C130.626 65.7962 131.525 64.929 132.174 63.8831C132.822 62.8372 133.199 61.646 133.269 60.4177V60.3207C133.274 60.2594 133.274 60.1978 133.269 60.1365V59.9621V59.7974C133.279 59.6102 133.279 59.4225 133.269 59.2355C133.157 58.055 132.764 56.9185 132.121 55.9219C131.478 54.9254 130.606 54.0977 129.576 53.5085L81.7735 25.8818C80.6408 25.2316 79.3579 24.8876 78.0518 24.8835Z" fill="#A4AB09"/>
<path d="M103.795 81.2402L108.641 84.031C108.641 84.031 127.512 70.3678 130.837 66.8019C132.38 65.0165 133.248 62.7464 133.289 60.387C133.218 61.6153 132.842 62.8066 132.193 63.8523C131.545 64.8983 130.646 65.7655 129.577 66.3755L103.795 81.2402Z" fill="#6D7225"/>
</g>
<defs>
<clipPath id="clip0_5_161">
<rect width="494" height="175" fill="white"/>
</clipPath>
</defs>
</svg>
